<svg width="52" height="62" fill="none" xmlns="http://www.w3.org/2000/svg"><path fill-rule="evenodd" clip-rule="evenodd" d="M14.826 41.783H.674v19.543h14.152V41.783zM0 41.109V62h15.5V41.11H0z" fill="#878787"/><path fill-rule="evenodd" clip-rule="evenodd" d="M29.651 41.783H15.5v19.543h14.152V41.783zm-14.826-.674V62h15.5V41.11h-15.5z" fill="#878787"/><path fill-rule="evenodd" clip-rule="evenodd" d="M29.651 45.152H15.5V56.61h14.152V45.152zm-14.826-.674v12.805h15.5V44.478h-15.5z" fill="#878787"/><path fill-rule="evenodd" clip-rule="evenodd" d="M50.544 41.783H30.326v19.543h20.218V41.783zm-20.892-.674V62h21.566V41.11H29.652z" fill="#878787"/><path fill-rule="evenodd" clip-rule="evenodd" d="M47.847 39.761H33.02v1.348h14.826v-1.348zm-15.5-.674v2.696H48.52v-2.696H32.347zM14.826 20.892H.674v20.217h14.152V20.892zM0 20.218v21.565h15.5V20.218H0z" fill="#878787"/><path fill-rule="evenodd" clip-rule="evenodd" d="M13.477 31H2.021v8.76h11.456V31zm-12.13-.674v10.109H14.15V30.326H1.347z" fill="#878787"/><path fill-rule="evenodd" clip-rule="evenodd" d="M12.131 32.347h-8.76v6.066h8.76v-6.066zm-9.435-.674v7.413h10.109v-7.413H2.696zM14.826.674H.674v19.543h14.152V.674zM0 0v20.891h15.5V0H0z" fill="#878787"/><path fill-rule="evenodd" clip-rule="evenodd" d="M29.651.674H15.5v19.543h14.152V.674zM14.825 0v20.891h15.5V0h-15.5z" fill="#878787"/><path fill-rule="evenodd" clip-rule="evenodd" d="M50.544.674H30.326v19.543h20.218V.674zM29.652 0v20.891h21.566V0H29.652z" fill="#878787"/></svg>