<svg width="19" height="19" fill="none" xmlns="http://www.w3.org/2000/svg"><g clip-path="url(#clip0_411_132)"><path d="M18.587 9.727c0-.64-.062-1.301-.165-1.92H9.479v3.655h5.122a4.309 4.309 0 01-1.9 2.87l3.057 2.375c1.797-1.672 2.83-4.11 2.83-6.98z" fill="#4280EF"/><path d="M9.48 18.98c2.56 0 4.708-.847 6.278-2.293L12.7 14.333c-.846.578-1.941.908-3.221.908-2.479 0-4.565-1.672-5.329-3.903l-3.139 2.416A9.47 9.47 0 009.48 18.98z" fill="#34A353"/><path d="M4.151 11.317a5.758 5.758 0 010-3.634L1.012 5.246a9.492 9.492 0 000 8.508l3.14-2.437z" fill="#F6B704"/><path d="M9.48 3.78a5.172 5.172 0 013.634 1.424l2.706-2.726A9.123 9.123 0 009.48.021a9.47 9.47 0 00-8.468 5.225l3.14 2.437c.763-2.252 2.85-3.904 5.328-3.904z" fill="#E54335"/></g><defs><clipPath id="clip0_411_132"><path fill="#fff" d="M0 0h18.587v19H0z"/></clipPath></defs></svg>