<svg width="139" height="72" fill="none" xmlns="http://www.w3.org/2000/svg"><g clip-path="url(#clip0_220_244)"><path d="M76.238 72.219h-58.66c-3.573 0-6.47-2.931-6.47-6.547V6.327c0-3.616 2.896-6.547 6.47-6.547h58.66c3.574 0 6.471 2.93 6.471 6.547v4.61h-3.236v-4.61c0-1.808-1.447-3.274-3.235-3.274h-58.66c-1.786 0-3.235 1.465-3.235 3.274v59.345c0 1.807 1.448 3.273 3.236 3.273h58.659c1.786 0 3.236-1.465 3.236-3.273v-3.956h3.235v3.957c0 3.615-2.897 6.546-6.471 6.546z" fill="#213C42"/><path d="M25.313 62.643c2.482 0 4.494-2.036 4.494-4.547 0-2.511-2.012-4.547-4.494-4.547-2.482 0-4.495 2.036-4.495 4.547 0 2.511 2.012 4.547 4.495 4.547zm15.168-31.937V17.049h3.394v10.653h6.672v3.004H40.481zm17.646.194c-1.273 0-2.376-.228-3.308-.683-.932-.454-1.648-1.108-2.15-1.96-.502-.852-.752-1.877-.752-3.074v-8.135h3.394v7.647c0 1.119.257 1.896.77 2.33.514.437 1.235.654 2.16.654.926 0 1.636-.217 2.132-.653.494-.436.742-1.212.742-2.331v-7.647h3.279v8.135c0 1.197-.26 2.222-.782 3.073-.521.852-1.25 1.505-2.189 1.961-.938.456-2.037.682-3.296.682zm15.04-.04c-1.35 0-2.548-.256-3.596-.77a5.618 5.618 0 01-2.458-2.331c-.592-1.04-.887-2.341-.887-3.903 0-1.131.18-2.132.54-3.004a6.065 6.065 0 011.513-2.195 6.612 6.612 0 012.265-1.346 8.232 8.232 0 012.778-.459 9.74 9.74 0 012.043.215c.668.144 1.305.326 1.909.547l.251.117-.597 2.654-.502-.078c-.528-.078-1.026-.15-1.494-.215-.47-.065-.949-.098-1.437-.098-.784 0-1.46.137-2.024.41a2.918 2.918 0 00-1.312 1.25c-.309.56-.463 1.287-.463 2.184 0 .923.144 1.668.434 2.233.29.567.706.982 1.253 1.249.546.267 1.211.4 1.996.4.437 0 .906-.033 1.408-.098.502-.065 1.035-.15 1.601-.254l.849-.176.558 2.654-.424.176c-.656.273-1.347.482-2.074.623-.726.144-1.436.215-2.13.215zm6.402-.154V17.049h3.394v13.657h-3.394zm6.073 0V17.049h5.245c1.466 0 2.745.254 3.838.76a5.726 5.726 0 012.555 2.283c.61 1.015.916 2.283.916 3.805 0 1.431-.303 2.656-.906 3.677-.605 1.02-1.466 1.798-2.585 2.33-1.118.535-2.442.8-3.971.8h-5.092v.002zm3.394-3.006h1.754c.887 0 1.62-.143 2.198-.43a2.834 2.834 0 001.302-1.268c.29-.558.433-1.261.433-2.106 0-.937-.137-1.684-.414-2.244a2.51 2.51 0 00-1.282-1.219c-.578-.253-1.324-.38-2.237-.38h-1.754V27.7zM40.481 54.116V40.459H50.76v3.004h-6.885v2.771h6.114v2.732h-6.114v5.15h-3.394zm15.119.156c-1.17 0-2.03-.319-2.584-.956-.554-.637-.829-1.476-.829-2.517v-6.75h3.278v5.873c0 .495.116.845.348 1.053.231.208.584.313 1.06.313.193 0 .373-.022.54-.068.167-.046.334-.1.501-.166l.54-.253v-6.75h3.298v10.066h-2.449l-.405-1.775.635.469-1.195.663a8.57 8.57 0 01-1.398.584 4.496 4.496 0 01-1.34.214zm8.388-.156V44.049h2.391l.328 1.288.752-.604c.36-.287.736-.5 1.127-.643a3.288 3.288 0 011.13-.215c.154-.013.317.009.49.067.174.059.344.154.512.283v2.77c-.374.014-.733.044-1.08.088a6.22 6.22 0 00-1.157.283l-1.215.332v6.418h-3.278zm8.061 0V44.049h2.43l.25 1.054.656-.371c.463-.26.932-.47 1.408-.624a4.548 4.548 0 011.427-.234c.823 0 1.494.152 2.016.458.52.306.912.721 1.176 1.249.264.526.395 1.12.395 1.785v6.75H78.51v-5.892c0-.442-.11-.78-.328-1.014-.22-.235-.612-.352-1.177-.352-.206 0-.401.023-.588.068a3.093 3.093 0 00-.569.204l-.521.195v6.79h-3.278zm13.517-11.472a1.99 1.99 0 01-1.013-.273 2.049 2.049 0 01-.742-.722c-.18-.3-.27-.623-.27-.975 0-.365.09-.693.27-.986.18-.293.427-.53.742-.712a1.99 1.99 0 011.013-.273c.374 0 .713.09 1.022.273.31.182.552.42.733.712.18.293.27.621.27.986 0 .352-.09.676-.27.975-.18.3-.425.54-.733.722-.309.182-.65.273-1.022.273zm-1.64 11.471V44.05h3.279v10.066h-3.278zm9.989.157c-1.041 0-1.85-.234-2.43-.702-.579-.467-.867-1.229-.867-2.282v-4.546h-2.063v-2.146l2.063-.547v-2.263l3.297-.8v3.063h2.911v2.693h-2.91v3.492c0 .43.073.752.22.966.149.215.505.322 1.07.322.154 0 .309-.006.463-.02.155-.013.322-.032.502-.058l.54-.078.31 2.36-.444.118c-.45.13-.904.234-1.36.312-.456.077-.89.116-1.302.116zm7.81 0c-1.17 0-2.03-.319-2.584-.956-.554-.637-.829-1.476-.829-2.517v-6.75h3.278v5.873c0 .495.116.845.348 1.053.231.208.584.313 1.06.313.193 0 .373-.022.539-.068.168-.046.335-.1.502-.166l.541-.253v-6.75h3.297v10.066h-2.449l-.405-1.777.635.468-1.195.663a8.55 8.55 0 01-1.398.585 4.414 4.414 0 01-1.34.216zm8.388-.156V44.049h2.391l.328 1.288.752-.604c.36-.287.736-.5 1.127-.643a3.294 3.294 0 011.129-.215c.155-.013.318.009.492.067.174.059.343.154.511.283v2.77c-.374.014-.733.044-1.08.088a6.22 6.22 0 00-1.157.283l-1.215.332v6.418h-3.278zm13.19.156c-1.015 0-1.944-.198-2.786-.595a4.846 4.846 0 01-2.025-1.756c-.508-.773-.762-1.713-.762-2.819 0-.832.145-1.572.434-2.224a4.865 4.865 0 012.883-2.662 6.012 6.012 0 012.025-.342c1.028 0 1.899.218 2.612.654a4.29 4.29 0 011.64 1.824c.38.78.569 1.692.569 2.732v.839h-6.788c.09.416.257.751.502 1.005.245.254.55.439.916.556.367.117.782.176 1.245.176.32 0 .665-.026 1.032-.078a9.35 9.35 0 001.128-.235l.944-.234.829 2.048-.925.39a8.843 8.843 0 01-3.473.72zm-2.198-6.322h3.856c-.077-.547-.264-.96-.559-1.238-.296-.28-.72-.42-1.272-.42-.348 0-.659.06-.936.176a1.61 1.61 0 00-.685.547c-.18.246-.315.559-.404.935z" fill="#279DB1"/></g><defs><clipPath id="clip0_220_244"><path fill="#fff" d="M0 0h139v72H0z"/></clipPath></defs></svg>