<svg width="370" height="472" fill="none" xmlns="http://www.w3.org/2000/svg"><rect width="58" height="59" rx="8" transform="matrix(-1 0 0 1 211 94)" fill="#279EB2"/><rect width="125.867" height="125.867" rx="8" transform="matrix(-1 0 0 1 278.695 162.806)" fill="#ECECEC"/><rect width="41.044" height="41.044" rx="8" transform="matrix(-1 0 0 1 369.675 35.57)" fill="#279EB2"/><rect width="28.046" height="28.046" rx="8" transform="matrix(-1 0 0 1 181.559 302.612)" fill="#279EB2"/><rect width="151.861" height="151.861" rx="8" transform="matrix(-1 0 0 1 143.252 102.609)" fill="#279EB2"/><rect width="151.861" height="131.339" rx="8" transform="matrix(-1 0 0 1 143.252 266.099)" fill="#ECECEC"/><rect width="151.861" height="90.98" rx="8" transform="matrix(-1 0 0 1 143.252 0)" fill="#ECECEC"/></svg>