<svg width="25" height="23" fill="none" xmlns="http://www.w3.org/2000/svg"><path d="M11.105 1.9c.5-1.267 2.29-1.267 2.79 0l1.636 4.145a2.5 2.5 0 002.172 1.578l4.448.274c1.358.084 1.912 1.788.862 2.654l-3.437 2.837a2.5 2.5 0 00-.83 2.553l1.114 4.315c.34 1.318-1.11 2.371-2.258 1.64l-3.76-2.392a2.5 2.5 0 00-2.684 0l-3.76 2.392c-1.148.731-2.598-.322-2.258-1.64l1.114-4.315a2.5 2.5 0 00-.83-2.553L1.987 10.55c-1.05-.866-.496-2.57.862-2.654l4.448-.274A2.5 2.5 0 009.47 6.045l1.636-4.146z" stroke="#279EB2"/></svg>