<svg width="50" height="50" fill="none" xmlns="http://www.w3.org/2000/svg"><g clip-path="url(#clip0_63_769)"><circle cx="25" cy="25" r="24" stroke="#000" stroke-width="2"/><path d="M24.957 4.336l.61 1.877h1.974l-1.597 1.16.61 1.876-1.597-1.16-1.596 1.16.61-1.877-1.598-1.16h1.974l.61-1.876zm0 35.426l.61 1.878h1.974l-1.597 1.16.61 1.876-1.597-1.16-1.596 1.16.61-1.877-1.598-1.16h1.974l.61-1.877zM34.68 7.476l.61 1.877h1.973l-1.597 1.16.61 1.877-1.596-1.16-1.597 1.16.61-1.877-1.596-1.16h1.973l.61-1.877zm6.633 6.544l.61 1.877h1.973l-1.596 1.16.61 1.877-1.597-1.16-1.597 1.16.61-1.877-1.596-1.16h1.973l.61-1.877zm.158 16.536l.61 1.878h1.973l-1.596 1.16.61 1.875-1.597-1.159-1.596 1.16.61-1.877-1.597-1.16h1.973l.61-1.877zM8.841 14.02l.61 1.877h1.973l-1.597 1.16.61 1.877-1.596-1.16-1.597 1.16.61-1.877-1.596-1.16h1.974l.609-1.877zm34.009 7.887l.61 1.876h1.974l-1.597 1.16.61 1.877-1.596-1.16-1.597 1.16.61-1.877-1.597-1.16h1.973l.61-1.876zm-35.517 0l.61 1.876h1.973l-1.597 1.16.61 1.877-1.596-1.16-1.597 1.16.61-1.877-1.596-1.16h1.973l.61-1.876zm1.294 8.649l.61 1.878h1.973l-1.596 1.16.609 1.875-1.596-1.159-1.597 1.16.61-1.877-1.597-1.16h1.974l.61-1.877zm26.339 6.824l.61 1.877h1.973l-1.597 1.16.61 1.877-1.596-1.16-1.597 1.16.61-1.877-1.597-1.16h1.974l.61-1.877zM15.549 7.476l.61 1.877h1.973l-1.597 1.16.61 1.877-1.596-1.16-1.596 1.16.61-1.877-1.597-1.16h1.973l.61-1.877zM14.83 37.26l.61 1.877h1.973l-1.597 1.16.61 1.876-1.597-1.159-1.596 1.16.61-1.877-1.597-1.16h1.973l.61-1.877z" fill="#272727"/></g><defs><clipPath id="clip0_63_769"><path fill="#fff" d="M0 0h50v50H0z"/></clipPath></defs></svg>