<svg width="55" height="55" fill="none" xmlns="http://www.w3.org/2000/svg"><path d="M12.485 8.8C7.453 8.8 3.3 12.723 3.3 17.6v.455a5.433 5.433 0 00-3.148 3.736c-.635 2.722.864 5.2 3.148 6.233V36.3c0 2.605 1.31 4.91 3.3 6.306V47.3a1.1 1.1 0 001.1 1.1h4.4a1.1 1.1 0 001.1-1.1V44h28.6v3.3a1.1 1.1 0 001.1 1.1h4.4a1.1 1.1 0 001.1-1.1v-4.694c1.99-1.395 3.3-3.701 3.3-6.306v-8.257c1.92-.857 3.3-2.712 3.3-4.943 0-2.241-1.367-4.177-3.3-5.032V17.6c0-4.877-4.154-8.8-9.185-8.8h-30.03zm0 2.2h30.03c3.899 0 6.985 2.972 6.985 6.6v.002a5.59 5.59 0 00-.537.024C46.076 17.9 44 20.455 44 23.289v5.31H30.8c-1.317 0-2.491.602-3.3 1.528-.809-.926-1.983-1.527-3.3-1.527H11v-5.5c0-3.023-2.502-5.482-5.5-5.496V17.6c0-3.629 3.086-6.6 6.985-6.6zm1.815 3.3a1.1 1.1 0 100 2.2 1.1 1.1 0 000-2.2zm8.8 0a1.1 1.1 0 100 2.2 1.1 1.1 0 000-2.2zm8.8 0a1.1 1.1 0 100 2.2 1.1 1.1 0 000-2.2zm8.8 0a1.1 1.1 0 100 2.2 1.1 1.1 0 000-2.2zm-22 4.4a1.1 1.1 0 100 2.2 1.1 1.1 0 000-2.2zm8.8 0a1.1 1.1 0 100 2.2 1.1 1.1 0 000-2.2zm8.8 0a1.1 1.1 0 100 2.2 1.1 1.1 0 000-2.2zM5.52 19.798c1.852-.004 3.28 1.471 3.28 3.302v11c0 1.81 1.49 3.3 3.3 3.3h30.8c1.81 0 3.3-1.49 3.3-3.3V23.289c0-1.762 1.282-3.313 2.971-3.474A3.28 3.28 0 0152.8 23.1c0 1.545-1.053 2.81-2.477 3.18a1.1 1.1 0 00-.823 1.065V36.3c0 3.05-2.45 5.5-5.5 5.5H11a5.483 5.483 0 01-5.5-5.5v-8.944a1.1 1.1 0 00-.825-1.064c-1.66-.428-2.832-2.07-2.38-4.002.27-1.156 1.251-2.132 2.408-2.398.279-.064.552-.094.816-.094zM14.3 23.1a1.1 1.1 0 100 2.2 1.1 1.1 0 000-2.2zm8.8 0a1.1 1.1 0 100 2.2 1.1 1.1 0 000-2.2zm8.8 0a1.1 1.1 0 100 2.2 1.1 1.1 0 000-2.2zm8.8 0a1.1 1.1 0 100 2.2 1.1 1.1 0 000-2.2zM11 30.8h13.2c1.228 0 2.2.971 2.2 2.2v2.2H12.1c-.622 0-1.1-.479-1.1-1.1v-3.3zm19.8 0H44v3.3c0 .621-.479 1.1-1.1 1.1H28.6V33c0-1.229.972-2.2 2.2-2.2zm-22 12.873c.698.21 1.436.327 2.2.327v2.2H8.8v-2.527zm37.4 0V46.2H44V44c.764 0 1.502-.118 2.2-.327z" fill="#000"/></svg>