<svg width="46" height="46" fill="none" xmlns="http://www.w3.org/2000/svg"><path d="M17.448 30.547l-.701 4.115a1.78 1.78 0 00.7 1.725c.306.233.666.341 1.043.341.287 0 .557-.072.826-.197l3.702-1.941 3.701 1.94a1.76 1.76 0 001.87-.125c.556-.396.826-1.06.7-1.725l-.7-4.115 2.982-2.911a1.746 1.746 0 00.45-1.815c-.216-.647-.755-1.114-1.42-1.204l-4.133-.593-1.85-3.737a1.768 1.768 0 00-1.582-.989 1.73 1.73 0 00-1.581.989l-1.851 3.737-4.133.593a1.725 1.725 0 00-1.42 1.204 1.746 1.746 0 00.45 1.815l2.947 2.893zm2.839-4.834a.888.888 0 00.665-.485l2.03-4.169 2.049 4.17a.846.846 0 00.664.484l4.582.647-3.306 3.235a.861.861 0 00-.252.79l.81 4.564-4.116-2.156a.846.846 0 00-.826 0l-4.08 2.156.791-4.582a.91.91 0 00-.251-.79l-3.342-3.217 4.582-.647z" fill="#000"/><path d="M42.136 6.433h-5.03V3.737a.901.901 0 00-.9-.898.89.89 0 00-.898.898v2.696H10.691V3.737a.901.901 0 00-.898-.898.901.901 0 00-.899.898v2.696h-5.03a2.814 2.814 0 00-2.822 2.82V40.34a2.814 2.814 0 002.821 2.82h38.273a2.814 2.814 0 002.822-2.82V9.254a2.826 2.826 0 00-2.822-2.821zM43.18 40.34c0 .575-.468 1.042-1.043 1.042H3.863a1.043 1.043 0 01-1.042-1.042V14.626h40.34V40.34h.018zm0-27.493H2.82V9.255c0-.575.467-1.042 1.042-1.042h38.273c.575 0 1.043.467 1.043 1.042v3.594z" fill="#000"/></svg>